<svg xmlns="http://www.w3.org/2000/svg" viewBox="0 0 51.4 51.4"><style>.a{fill:#010002;}</style><path d="M26 12.3c8.7 0.1 14.1-0.5 14.8 9.1h10.6c0-14.9-13-16.9-25.7-16.9 -12.7 0-25.7 2-25.7 16.9h10.5C11.3 11.6 17.4 12.2 26 12.3z" class="a"/><path d="M5.3 26.2c2.6 0 4.7 0.2 5.2-2.4 0.1-0.3 0.1-0.7 0.1-1.2H10.5 0C0 26.4 2.4 26.2 5.3 26.2z" class="a"/><path d="M40.9 22.6h-0.1c0 0.5 0 0.8 0.1 1.2 0.5 2.3 2.6 2.2 5.2 2.2 2.9 0 5.3 0.2 5.3-3.4H40.9z" class="a"/><path d="M35.7 20.1v-1.5c0-0.7-0.8-0.7-1.7-0.7h-1.6c-1 0-1.7 0-1.7 0.7v1.3 1h-11v-1 -1.3c0-0.7-0.8-0.7-1.7-0.7h-1.6c-1 0-1.7 0-1.7 0.7v1.5 1.3C12.2 24 4 35.1 3.7 36.4l0 9c0 0.8 0.7 1.5 1.5 1.5h40c0.8 0 1.5-0.7 1.5-1.5v-9c-0.3-1.3-8.5-12.4-11-15V20.1zM19.2 37.6c-0.8 0-1.5-0.7-1.5-1.5s0.7-1.5 1.5-1.5 1.5 0.7 1.5 1.5S20 37.6 19.2 37.6zM19.2 32.6c-0.8 0-1.5-0.7-1.5-1.5s0.7-1.5 1.5-1.5 1.5 0.7 1.5 1.5S20 32.6 19.2 32.6zM19.2 27.6c-0.8 0-1.5-0.7-1.5-1.5 0-0.8 0.7-1.5 1.5-1.5s1.5 0.7 1.5 1.5C20.6 27 20 27.6 19.2 27.6zM25.2 37.6c-0.8 0-1.5-0.7-1.5-1.5s0.7-1.5 1.5-1.5c0.8 0 1.5 0.7 1.5 1.5S26 37.6 25.2 37.6zM25.2 32.6c-0.8 0-1.5-0.7-1.5-1.5s0.7-1.5 1.5-1.5c0.8 0 1.5 0.7 1.5 1.5S26 32.6 25.2 32.6zM25.2 27.6c-0.8 0-1.5-0.7-1.5-1.5 0-0.8 0.7-1.5 1.5-1.5 0.8 0 1.5 0.7 1.5 1.5C26.6 27 26 27.6 25.2 27.6zM31.2 37.6c-0.8 0-1.5-0.7-1.5-1.5s0.7-1.5 1.5-1.5 1.5 0.7 1.5 1.5S32 37.6 31.2 37.6zM31.2 32.6c-0.8 0-1.5-0.7-1.5-1.5s0.7-1.5 1.5-1.5 1.5 0.7 1.5 1.5S32 32.6 31.2 32.6zM31.2 27.6c-0.8 0-1.5-0.7-1.5-1.5 0-0.8 0.7-1.5 1.5-1.5s1.5 0.7 1.5 1.5C32.6 27 32 27.6 31.2 27.6z" class="a"/></svg>